<svg width="248" height="50" viewBox="0 0 248 50" fill="none" xmlns="http://www.w3.org/2000/svg">
<path id="Vector" d="M221.469 1.6898e-06H26.5106C24.3736 -0.000923905 22.2739 0.378415 20.4229 1.09984C18.5718 1.82127 17.0347 2.85934 15.9662 4.10959L1.63001 20.8904C0.56217 22.1399 0 23.5572 0 25C0 26.4428 0.56217 27.8601 1.63001 29.1096L15.9662 45.8904C17.0347 47.1407 18.5718 48.1787 20.4229 48.9002C22.2739 49.6216 24.3736 50.0009 26.5106 50H221.469C223.604 49.9997 225.702 49.6198 227.551 48.8984C229.4 48.1771 230.936 47.1396 232.003 45.8904L246.37 29.1096C247.438 27.8601 248 26.4428 248 25C248 23.5572 247.438 22.1399 246.37 20.8904L232.003 4.10959C230.936 2.86035 229.4 1.82293 227.551 1.10156C225.702 0.380188 223.604 0.000278767 221.469 1.6898e-06Z" fill="#D5FF2F"/>
</svg>
