<svg width="24" height="25" viewBox="0 0 24 25" fill="none" xmlns="http://www.w3.org/2000/svg">
<g id="akar-icons:reddit-fill" clip-path="url(#clip0_1_1006)">
<path id="Vector" fill-rule="evenodd" clip-rule="evenodd" d="M24 12.3599C24 18.9869 18.627 24.3599 12 24.3599C5.373 24.3599 0 18.9869 0 12.3599C0 5.73286 5.373 0.359863 12 0.359863C18.627 0.359863 24 5.73286 24 12.3599ZM19.688 11.4179C19.882 11.6949 19.992 12.0219 20.004 12.3599C20.0092 12.6905 19.9207 13.0159 19.7487 13.2984C19.5767 13.5808 19.3282 13.8088 19.032 13.9559C19.046 14.1319 19.046 14.3079 19.032 14.4839C19.032 17.1719 15.9 19.3559 12.036 19.3559C8.172 19.3559 5.04 17.1719 5.04 14.4839C5.02649 14.3081 5.02649 14.1316 5.04 13.9559C4.81117 13.8487 4.60825 13.6933 4.44519 13.5004C4.28213 13.3074 4.16279 13.0813 4.09537 12.8378C4.02796 12.5943 4.01408 12.3391 4.05467 12.0898C4.09526 11.8404 4.18937 11.6028 4.33053 11.3932C4.47169 11.1837 4.65656 11.0072 4.87241 10.8758C5.08826 10.7445 5.32999 10.6615 5.58098 10.6325C5.83197 10.6035 6.08626 10.6292 6.32638 10.7078C6.5665 10.7864 6.78676 10.916 6.972 11.0879C8.35473 10.1501 9.98146 9.63705 11.652 9.61186L12.54 5.44786C12.55 5.39966 12.5694 5.35391 12.5972 5.31327C12.625 5.27264 12.6605 5.23792 12.7018 5.21113C12.7431 5.18434 12.7894 5.16601 12.8378 5.15721C12.8862 5.14841 12.9359 5.14932 12.984 5.15986L15.924 5.74786C16.0676 5.50119 16.2944 5.31377 16.5637 5.21924C16.833 5.12471 17.1272 5.12926 17.3934 5.23209C17.6597 5.33491 17.8806 5.52927 18.0164 5.78027C18.1523 6.03127 18.1943 6.32248 18.1348 6.60163C18.0753 6.88078 17.9182 7.12958 17.6918 7.30338C17.4654 7.47718 17.1845 7.56459 16.8995 7.54993C16.6144 7.53526 16.3439 7.41948 16.1366 7.22336C15.9292 7.02725 15.7985 6.76364 15.768 6.47986L13.2 5.93986L12.42 9.68386C14.0702 9.71926 15.6749 10.2319 17.04 11.1599C17.2222 10.9847 17.4402 10.851 17.679 10.768C17.9178 10.6851 18.1718 10.6548 18.4234 10.6793C18.675 10.7039 18.9183 10.7826 19.1366 10.91C19.3549 11.0375 19.543 11.2108 19.688 11.4179ZM8.206 12.8929C8.11841 13.0239 8.05749 13.171 8.02672 13.3256C7.99595 13.4802 7.99593 13.6393 8.02667 13.7939C8.08874 14.1062 8.27231 14.381 8.537 14.5579C8.80169 14.7348 9.1258 14.7993 9.43805 14.7372C9.59266 14.7065 9.7397 14.6456 9.87078 14.558C10.0019 14.4704 10.1144 14.3579 10.202 14.2269C10.3789 13.9622 10.4434 13.6381 10.3813 13.3258C10.3193 13.0136 10.1357 12.7388 9.871 12.5619C9.60631 12.385 9.2822 12.3205 8.96995 12.3825C8.6577 12.4446 8.3829 12.6282 8.206 12.8929ZM12.012 17.7839C13.077 17.8279 14.125 17.5499 14.976 16.9079C15.0397 16.8458 15.076 16.761 15.0772 16.6721C15.0783 16.5832 15.0441 16.4975 14.982 16.4339C14.9513 16.4023 14.9146 16.3772 14.8742 16.3598C14.8337 16.3425 14.7903 16.3333 14.7462 16.3327C14.6574 16.3316 14.5717 16.3658 14.508 16.4279C13.7797 16.9503 12.895 17.2085 12 17.1599C11.1061 17.1998 10.2255 16.9331 9.504 16.4039C9.44182 16.3528 9.36289 16.3268 9.28256 16.3307C9.20222 16.3346 9.12622 16.3683 9.06935 16.4252C9.01247 16.4821 8.97879 16.5581 8.97484 16.6384C8.97089 16.7188 8.99697 16.7977 9.048 16.8599C9.89937 17.5014 10.9469 17.828 12.012 17.7839ZM14.093 14.6059C14.291 14.7379 14.511 14.8559 14.748 14.8559C14.9108 14.8578 15.0722 14.8265 15.2225 14.764C15.3728 14.7015 15.5087 14.609 15.6221 14.4923C15.7355 14.3755 15.824 14.2369 15.8821 14.0848C15.9401 13.9328 15.9667 13.7705 15.96 13.6079C15.9599 13.4006 15.9062 13.1969 15.8039 13.0165C15.7017 12.8362 15.5545 12.6854 15.3767 12.5789C15.1989 12.4724 14.9965 12.4137 14.7893 12.4087C14.5821 12.4036 14.3771 12.4523 14.1943 12.55C14.0115 12.6477 13.8571 12.7911 13.7462 12.9663C13.6353 13.1414 13.5717 13.3422 13.5615 13.5493C13.5513 13.7563 13.5949 13.9624 13.688 14.1476C13.7812 14.3328 13.9207 14.4907 14.093 14.6059Z" fill="white"/>
</g>
<defs>
<clipPath id="clip0_1_1006">
<rect width="24" height="24" fill="white" transform="translate(0 0.359863)"/>
</clipPath>
</defs>
</svg>
