<svg width="24" height="25" viewBox="0 0 24 25" fill="none" xmlns="http://www.w3.org/2000/svg">
<g id="Group 323">
<path id="Vector" d="M2.57143 0C1.15179 0 0 1.16906 0 2.61V21.75C0 23.1909 1.15179 24.36 2.57143 24.36H21.4286C22.8482 24.36 24 23.1909 24 21.75V2.61C24 1.16906 22.8482 0 21.4286 0H2.57143ZM14.6822 3.48L19.2353 9.70866L18.008 10.6329L13.4551 4.40421L14.6822 3.48ZM11.8517 5.97157L17.7309 10.9343L16.7607 12.1198L10.8817 7.15667L11.8517 5.97157ZM9.59491 9.18628L16.5235 12.4812L15.8901 13.8877L8.9617 10.6128L9.59491 9.18628ZM8.28857 12.7025L15.7711 14.2895L15.4543 15.8169L7.97196 14.2294L8.28857 12.7024V12.7025ZM4.76464 14.6715H6.28929V19.3331H16.9985V14.6714H18.5226V20.88H4.76464V14.6714V14.6715ZM7.81334 16.2188H15.4542V17.7657H7.81339V16.2188H7.81334Z" fill="white"/>
</g>
</svg>
