<svg width="24" height="25" viewBox="0 0 24 25" fill="none" xmlns="http://www.w3.org/2000/svg">
<g id="akar-icons:youtube-fill" clip-path="url(#clip0_1_1010)">
<g id="Group">
<g id="Group_2">
<path id="Vector" d="M23.4999 6.86645C23.364 6.38168 23.0993 5.9428 22.7339 5.59645C22.3582 5.23945 21.8977 4.98409 21.3959 4.85445C19.5179 4.35945 11.9939 4.35945 11.9939 4.35945C8.85721 4.32376 5.72131 4.48073 2.60388 4.82945C2.10208 4.96866 1.64245 5.22974 1.26588 5.58945C0.895885 5.94545 0.627885 6.38445 0.487885 6.86545C0.151578 8.6772 -0.0118232 10.5168 -0.000115239 12.3595C-0.0121152 14.2005 0.150885 16.0395 0.487885 17.8535C0.624885 18.3325 0.891885 18.7695 1.26288 19.1225C1.63388 19.4755 2.09588 19.7305 2.60388 19.8655C4.50689 20.3595 11.9939 20.3595 11.9939 20.3595C15.1345 20.3952 18.2744 20.2382 21.3959 19.8895C21.8977 19.7598 22.3582 19.5044 22.7339 19.1475C23.0991 18.8012 23.3636 18.3622 23.4989 17.8775C23.844 16.0664 24.0118 14.226 23.9999 12.3825C24.0258 10.5311 23.8583 8.68202 23.4999 6.86545V6.86645ZM9.60188 15.7835V8.93645L15.8619 12.3605L9.60188 15.7835Z" fill="white"/>
</g>
</g>
</g>
<defs>
<clipPath id="clip0_1_1010">
<rect width="24" height="24" fill="white" transform="translate(0 0.359863)"/>
</clipPath>
</defs>
</svg>
