<svg width="24" height="25" viewBox="0 0 24 25" fill="none" xmlns="http://www.w3.org/2000/svg">
<g id="bi:quora" clip-path="url(#clip0_1_1008)">
<path id="Vector" d="M13.095 19.0739C12.264 17.4374 11.289 15.7844 9.3855 15.7844C9.0225 15.7844 8.6595 15.8444 8.325 15.9974L7.68 14.7029C8.4675 14.0279 9.7395 13.4909 11.376 13.4909C13.9215 13.4909 15.228 14.7179 16.266 16.2809C16.881 14.9459 17.1735 13.1414 17.1735 10.9049C17.1735 5.31886 15.426 2.45086 11.346 2.45086C7.326 2.45086 5.5875 5.31886 5.5875 10.9049C5.5875 16.4609 7.326 19.2989 11.3475 19.2989C11.985 19.2989 12.564 19.2299 13.0965 19.0739H13.095ZM14.0925 21.0239C13.1972 21.2644 12.2745 21.3874 11.3475 21.3899C5.991 21.3899 0.75 17.1179 0.75 10.9049C0.75 4.63336 5.9925 0.359863 11.346 0.359863C16.791 0.359863 21.981 4.60186 21.981 10.9049C21.981 14.4104 20.346 17.2589 17.9685 19.1009C18.7365 20.2514 19.5285 21.0164 20.628 21.0164C21.831 21.0164 22.3155 20.0864 22.3965 19.3589H23.961C24.0525 20.3294 23.568 24.3599 19.194 24.3599C16.5435 24.3599 15.144 22.8239 14.094 21.0239H14.0925Z" fill="white"/>
</g>
<defs>
<clipPath id="clip0_1_1008">
<rect width="24" height="24" fill="white" transform="translate(0 0.359863)"/>
</clipPath>
</defs>
</svg>
