<svg width="200" height="50" viewBox="0 0 200 50" fill="none" xmlns="http://www.w3.org/2000/svg">
<path id="Vector" d="M178.604 1.6898e-06H21.3795C19.6561 -0.000923905 17.9628 0.378415 16.4701 1.09984C14.9773 1.82127 13.7377 2.85934 12.876 4.10959L1.31452 20.8904C0.453363 22.1399 0 23.5572 0 25C0 26.4428 0.453363 27.8601 1.31452 29.1096L12.876 45.8904C13.7377 47.1407 14.9773 48.1787 16.4701 48.9002C17.9628 49.6216 19.6561 50.0009 21.3795 50H178.604C180.326 49.9997 182.018 49.6198 183.509 48.8984C185 48.1771 186.238 47.1396 187.099 45.8904L198.685 29.1096C199.547 27.8601 200 26.4428 200 25C200 23.5572 199.547 22.1399 198.685 20.8904L187.099 4.10959C186.238 2.86035 185 1.82293 183.509 1.10156C182.018 0.380188 180.326 0.000278767 178.604 1.6898e-06Z" fill="#D5FF2F"/>
</svg>
